<mxfile host="Electron" agent="Mozilla/5.0 (Windows NT 10.0; Win64; x64) AppleWebKit/537.36 (KHTML, like Gecko) draw.io/26.2.2 Chrome/134.0.6998.178 Electron/35.1.2 Safari/537.36" version="26.2.2">
  <diagram name="Page-1" id="KOJLn8sde3Oxl7jEyB1B">
    <mxGraphModel dx="1332" dy="787" grid="1" gridSize="10" guides="1" tooltips="1" connect="1" arrows="1" fold="1" page="1" pageScale="1" pageWidth="827" pageHeight="1169" math="0" shadow="0">
      <root>
        <mxCell id="0" />
        <mxCell id="1" parent="0" />
        <mxCell id="5413DWR2ZLAfhY9BqmON-1" value="Primitive Validation" style="rounded=0;whiteSpace=wrap;html=1;" vertex="1" parent="1">
          <mxGeometry x="120" y="180" width="120" height="60" as="geometry" />
        </mxCell>
        <mxCell id="5413DWR2ZLAfhY9BqmON-2" value="Object/Entity Validation" style="whiteSpace=wrap;html=1;rounded=0;" vertex="1" parent="1">
          <mxGeometry x="120" y="270" width="120" height="60" as="geometry" />
        </mxCell>
        <mxCell id="5413DWR2ZLAfhY9BqmON-4" value="Relational/Cross-entity Validation" style="whiteSpace=wrap;html=1;rounded=0;" vertex="1" parent="1">
          <mxGeometry x="120" y="370" width="120" height="60" as="geometry" />
        </mxCell>
        <mxCell id="5413DWR2ZLAfhY9BqmON-6" value="Exception Handling" style="whiteSpace=wrap;html=1;rounded=0;" vertex="1" parent="1">
          <mxGeometry x="280" y="98" width="120" height="60" as="geometry" />
        </mxCell>
        <mxCell id="5413DWR2ZLAfhY9BqmON-7" value="Condition" style="whiteSpace=wrap;html=1;rounded=0;" vertex="1" parent="1">
          <mxGeometry x="440" y="98" width="120" height="60" as="geometry" />
        </mxCell>
        <mxCell id="5413DWR2ZLAfhY9BqmON-8" value="Compo" style="text;html=1;align=center;verticalAlign=middle;resizable=0;points=[];autosize=1;strokeColor=none;fillColor=none;" vertex="1" parent="1">
          <mxGeometry x="190" y="105" width="60" height="30" as="geometry" />
        </mxCell>
      </root>
    </mxGraphModel>
  </diagram>
</mxfile>
